<?xml version="1.0" standalone="no"?>
<!DOCTYPE svg PUBLIC "-//W3C//DTD SVG 20010904//EN"
 "http://www.w3.org/TR/2001/REC-SVG-20010904/DTD/svg10.dtd">
<svg version="1.0" xmlns="http://www.w3.org/2000/svg"
 width="512.000000pt" height="512.000000pt" viewBox="0 0 512.000000 512.000000"
 preserveAspectRatio="xMidYMid meet">
<metadata>
Created by potrace 1.14, written by Peter Selinger 2001-2017
</metadata>
<g transform="translate(0.000000,512.000000) scale(0.100000,-0.100000)"
fill="#000000" stroke="none">
<path d="M1241 5020 c-211 -56 -372 -185 -465 -373 -42 -85 -53 -120 -71 -217
-13 -67 -6 -195 15 -275 20 -80 79 -209 109 -242 51 -55 51 -56 21 -167 -16
-57 -31 -126 -35 -152 -3 -26 -8 -50 -10 -54 -15 -24 -24 -310 -12 -410 19
-173 99 -337 238 -487 l39 -42 -58 -58 c-92 -92 -140 -217 -140 -364 0 -40 6
-92 13 -115 l12 -41 -51 -25 c-109 -54 -208 -172 -245 -293 -27 -86 -26 -221
2 -295 37 -101 97 -178 191 -246 25 -18 27 -23 17 -43 -7 -12 -14 -30 -16 -39
-32 -143 -34 -164 -31 -277 7 -199 60 -338 170 -447 49 -48 157 -113 205 -123
9 -2 34 -8 56 -13 61 -14 191 -15 273 -2 41 7 174 40 296 75 122 35 237 66
256 69 100 18 169 26 208 24 38 -2 45 -6 66 -42 71 -120 234 -222 391 -245 52
-8 272 -7 305 1 108 25 171 55 255 118 28 21 67 40 87 44 296 53 600 306 719
598 22 53 25 56 79 73 168 52 326 201 356 335 11 52 5 178 -11 239 -20 79 -63
191 -82 212 -7 8 -13 19 -13 24 0 13 -47 80 -112 162 -50 61 -121 131 -205
200 -12 10 -25 34 -28 53 -20 125 -77 210 -188 283 l-47 30 22 26 c13 14 29
31 36 39 31 34 103 143 130 197 72 143 134 388 148 579 3 44 7 84 10 88 2 4
29 21 60 39 74 42 180 148 229 229 22 36 40 67 41 70 0 3 6 19 13 35 36 84 51
162 52 270 3 233 -119 462 -316 594 -127 85 -257 121 -415 116 -141 -5 -206
-21 -322 -83 l-46 -24 -59 34 c-344 200 -794 283 -1203 222 -57 -9 -222 -45
-247 -55 -20 -7 -33 -1 -81 38 -56 46 -204 123 -237 123 -9 0 -26 5 -38 12
-12 6 -75 13 -142 14 -93 2 -136 -1 -194 -16z"/>
</g>
</svg>
